<svg xmlns="http://www.w3.org/2000/svg" viewBox="0 0 197.9 35.4"><path fill="#333" d="M177.1 3.6h-2.8l-6.8 10.2V3.6h-3v15.5h2.9l6.7-10.2v10.2h3V3.6zm13.6 8.7v4h.8c1.2 0 2.1-.1 2.5-.4.4-.3.7-.8.6-1.4 0-.7-.3-1.2-.8-1.6-.5-.4-1.3-.6-2.5-.6h-.6zm0-5.9v3.3h.7c.7 0 1.3-.2 1.6-.5.4-.3.5-.7.5-1.2s-.2-.9-.5-1.2c-.3-.3-.8-.4-1.5-.4h-.8zm-3 12.7V3.6h2.5c1.4 0 2.5.1 3.1.3.9.3 1.7.7 2.2 1.4.6.7.8 1.4.8 2.3 0 .6-.1 1.1-.4 1.6-.3.5-.7.9-1.2 1.3 1 .4 1.6 1 2.1 1.7.4.7.7 1.4.7 2.4 0 .9-.2 1.7-.7 2.4-.5.7-1 1.3-1.8 1.6-.7.4-1.7.5-3 .5h-4.3zM52 7.7L49.9 13h4.2L52 7.7zm-1.5-4.1h3l6 15.5h-3.1l-1.2-3.2h-6.4l-1.3 3.2h-3.1l6.1-15.5zm25.8 2.7l-2.1 2c-1.4-1.5-3-2.2-4.8-2.2-1.5 0-2.8.5-3.8 1.5s-1.5 2.3-1.5 3.7c0 1 .2 1.9.7 2.7.4.8 1.1 1.4 1.9 1.9.8.5 1.8.7 2.8.7.9 0 1.7-.2 2.4-.5s1.5-.9 2.4-1.8l2 2.1c-1.1 1.1-2.2 1.9-3.3 2.3-1 .4-2.2.6-3.5.6-2.4 0-4.4-.7-6-2.3-1.6-1.5-2.3-3.5-2.3-5.9 0-1.5.4-2.9 1.1-4.1.7-1.2 1.7-2.2 3-2.9S68 3 69.6 3c1.3 0 2.5.3 3.7.8 1.1.7 2.1 1.5 3 2.5m1-2.7H86v2.9h-2.8v12.6h-3.1V6.5h-2.8V3.6zm17.1 4.1L92.3 13h4.2l-2.1-5.3zm-1.6-4.1h3l6 15.5h-3.1l-1.2-3.2h-6.4l-1.3 3.2h-3.1l6.1-15.5zm14.4 6h.9c.7 0 1.3-.1 1.6-.2.3-.1.5-.3.7-.5s.3-.5.3-.9c0-.6-.2-1-.7-1.3-.3-.2-1-.3-1.9-.3h-.8l-.1 3.2zm-3-6h3.2c1.7 0 3 .2 3.7.5.8.3 1.4.8 1.8 1.5s.7 1.5.7 2.5c0 1.1-.3 2-.9 2.7s-1.4 1.2-2.3 1.5c-.6.2-1.6.2-3.1.2v6.6h-3l-.1-15.5zm10.7 0h8.7v2.9h-2.9v12.6h-3V6.5h-2.8V3.6zM132 7.7l-2.1 5.3h4.2L132 7.7zm-1.6-4.1h3l6 15.5h-3.1l-1.2-3.2h-6.4l-1.3 3.2h-3.1l6.1-15.5zm11.5 8.4h5.4v2.7h-5.4V12zm9.1-8.4h3v5.3l4.3-5.3h3.6l-5.5 6.9 6 8.6h-3.5l-4.9-6.9v6.9h-3V3.6zM20.3.1l2.6 27c2.2-1.1 4-2.8 5-5L24 6.9c3.8 2.1 6.4 6.1 6.4 10.7 0 5.6-3.8 10.4-9.1 11.8L19.2 0h-2.6l-2.2 29.5C9.2 28 5.5 23.3 5.5 17.7c0-4.7 2.7-8.8 6.6-10.9l-4 15.3c.9 2.3 2.7 3.9 4.9 5l2.7-27C6.8 1.2 0 8.7 0 17.7c0 9.8 8 17.7 18 17.7 9.9 0 18-7.9 18-17.7-.1-9-6.9-16.5-15.7-17.6m23.3 22.6h154.2v-.6H43.6m154.3 4.3v.7h-2.7v5.1h-.9v-5.8h3.6zm-13.6 0v2.4h2.7v-2.4h.9v5.8h-.9v-2.7h-2.7v2.7h-.9v-5.8h.9zm-10.8 0v4.3c.2-.4.4-.6.5-.9l2.2-2.9v-.5h.9v5.8h-.9V28c0 .1-.1.3-.5.8l-2.2 2.9v.6h-.9v-5.8h.9v-.1zm-10 1c0 .8-.1 2.2-.5 3.2-.1.3-.3.7-.4.8h2.7V27h-1.8v.4zm2.7-1v5.1h.6v2.2h-.8v-1.5h-3.9v1.5h-.8v-2.2h.4c.2-.3.4-.6.5-1 .4-1.1.5-2.2.5-3.5v-.5h3.5v-.1zm-10.5 0v5.8h-.9v-5.1H153c-.1 2.6-.2 3.3-.4 3.8-.4 1.1-1.3 1.2-1.7 1.2v-.7h.1c.3 0 .7-.2.9-.6.2-.3.3-.9.4-3.8v-.6h3.4zm-11 2.9c0-1.9-.9-2.2-1.6-2.2-.7 0-1.6.4-1.6 2.2 0 1.9.9 2.2 1.6 2.2s1.6-.3 1.6-2.2zm-1.6-3c1.5 0 2.6 1.1 2.6 3s-1.1 3-2.6 3-2.6-1.1-2.6-3 1.1-3 2.6-3zm-11.4.1l1.2 2 1.3-2h.9l-1.7 2.6 2 3.2h-1.1l-1.5-2.3-1.5 2.3h-.9l1.9-3-1.8-2.8h1.2zm-11.5 0l1.8 4.4 1.7-4.4h1.2v5.8h-.9v-4.9c0 .1-.2.4-.4 1l-1.5 3.8h-.4l-1.6-3.8c-.2-.4-.2-.5-.4-1v4.9h-.7v-5.8h1.2zm-8.2 2.9c0-1.9-.9-2.2-1.6-2.2s-1.6.4-1.6 2.2c0 1.9.9 2.2 1.6 2.2s1.6-.3 1.6-2.2zm-1.6-3c1.5 0 2.6 1.1 2.6 3s-1.1 3-2.6 3-2.6-1.1-2.6-3c-.1-1.9 1.1-3 2.6-3zm-12.2 3.6c0 .3 0 .8.4 1.2.3.4.7.5 1.1.5.3 0 .8-.1 1.1-.7.3-.4.4-1.1.4-1.6 0-1-.2-1.4-.3-1.6-.3-.5-.8-.6-1.1-.6-.4 0-.8.1-1.1.5-.4.5-.5.9-.5 1.2v1.1zm-.9 4.2v-7.6h.8v1.1c.2-.5.8-1.2 1.7-1.2.7 0 1.2.3 1.6.7.5.6.7 1.5.7 2.3s-.2 1.6-.6 2.2c-.3.4-.8.9-1.7.9-.9 0-1.4-.5-1.6-1v2.8h-.9v-.2zm-6.4-7.7v5.8H90v-5.1h-2.7v5.1h-.9v-5.8h4.5zm-11.4 2.9c0-1.9-.9-2.2-1.6-2.2s-1.6.4-1.6 2.2c0 1.9.9 2.2 1.6 2.2s1.6-.3 1.6-2.2zm-1.6-3c1.5 0 2.6 1.1 2.6 3s-1.1 3-2.6 3-2.6-1.1-2.6-3c-.1-1.9 1.1-3 2.6-3zm-12.2 3.6c0 .3 0 .8.4 1.2.3.4.7.5 1.1.5.3 0 .8-.1 1.1-.7.3-.4.4-1.1.4-1.6 0-1-.2-1.4-.3-1.6-.3-.5-.8-.6-1.1-.6-.4 0-.8.1-1.1.5-.4.5-.5.9-.5 1.2v1.1zm-.9 4.2v-7.6h.8v1.1c.2-.5.8-1.2 1.7-1.2.7 0 1.2.3 1.6.7.5.6.7 1.5.7 2.3s-.2 1.6-.6 2.2c-.3.4-.8.9-1.7.9-.9 0-1.4-.5-1.6-1v2.8h-.9v-.2zm-5.6-7.7v.7h-2.7v5.1h-.9v-5.8h3.6zm-11.5 2.9c-.9 0-1.4.1-1.8.3-.5.2-.6.7-.6 1 0 .2.1.6.4.8.2.1.4.2.8.2.6 0 1.1-.3 1.4-.6.3-.4.5-.9.5-1.3v-.4h-.7zm-3.1-1.4c.3-1.2 1.2-1.6 2.5-1.6.4 0 1.1 0 1.7.4.6.5.6 1.3.6 2v2.2c0 .3 0 .7.1 1.2h-.9c-.1-.4-.1-.8-.1-1.1-.2.3-.7 1.2-2 1.2-.7 0-1.2-.2-1.5-.5-.3-.2-.5-.6-.5-1.2 0-.8.4-1.2.8-1.5.7-.5 1.6-.5 2.5-.5h.8v-.2c0-.3 0-.7-.2-1-.3-.4-.8-.4-1.2-.4-.5 0-1.5.1-1.6 1h-1zM180.9 3.6h3V19h-3V3.6zM179.4.5h2.2v2.4h-2.2V.5zm3.5 0h2.2v2.4h-2.2V.5z"/></svg>